<svg width="15" height="39" viewBox="0 0 15 39" fill="none" xmlns="http://www.w3.org/2000/svg">
<path d="M0.186 10.468H2.186V6.468H4.186V2.468H6.186V0.467999H8.282V2.468H10.282V6.468H12.282V10.468H14.282V14.564H12.186V10.564H2.282V14.564H0.186V10.468ZM8.186 2.564H6.282V6.564H4.282V8.468H10.186V6.564H8.186V2.564ZM0.186 24.468H14.282V26.564H12.282V28.564H10.282V30.564H8.282V32.564H6.282V34.564H4.282V36.468H14.282V38.564H0.186V36.468H2.186V34.468H4.186V32.468H6.186V30.468H8.186V28.468H10.186V26.564H0.186V24.468Z" fill="white"/>
</svg>
