<svg width="16" height="26" viewBox="0 0 16 26" fill="none" xmlns="http://www.w3.org/2000/svg">
<path d="M7.08325 0.5H4.58325V3H7.08325V0.5Z" fill="#626262"/>
<path d="M9.16659 0.5H7.08325V3H9.16659V0.5Z" fill="#626262"/>
<path d="M2.5 7.16663H0V9.66663H2.5V7.16663Z" fill="#626262"/>
<path d="M4.58333 7.16663H2.5V9.66663H4.58333V7.16663Z" fill="#626262"/>
<path d="M13.75 7.16663H11.25V9.66663H13.75V7.16663Z" fill="#626262"/>
<path d="M15.8333 7.16663H13.75V9.66663H15.8333V7.16663Z" fill="#626262"/>
<path d="M11.2501 0.5H9.16675V3H11.2501V0.5Z" fill="#626262"/>
<path d="M7.08325 12.1666H4.58325V14.25H7.08325V12.1666Z" fill="#626262"/>
<path d="M9.16659 12.1666H7.08325V14.25H9.16659V12.1666Z" fill="#626262"/>
<path d="M4.58333 12.1666H2.5V14.25H4.58333V12.1666Z" fill="#626262"/>
<path d="M13.75 12.1666H11.25V14.25H13.75V12.1666Z" fill="#626262"/>
<path d="M11.2501 12.1666H9.16675V14.25H11.2501V12.1666Z" fill="#626262"/>
<path d="M7.08325 14.25H4.58325V16.3333H7.08325V14.25Z" fill="#626262"/>
<path d="M9.16659 14.25H7.08325V16.3333H9.16659V14.25Z" fill="#626262"/>
<path d="M4.58333 14.25H2.5V16.3333H4.58333V14.25Z" fill="#626262"/>
<path d="M13.75 14.25H11.25V16.3333H13.75V14.25Z" fill="#626262"/>
<path d="M11.2501 14.25H9.16675V16.3333H11.2501V14.25Z" fill="#626262"/>
<path d="M7.08325 16.3334H4.58325V18.4167H7.08325V16.3334Z" fill="#626262"/>
<path d="M9.16659 16.3334H7.08325V18.4167H9.16659V16.3334Z" fill="#626262"/>
<path d="M11.2501 16.3334H9.16675V18.4167H11.2501V16.3334Z" fill="#626262"/>
<path d="M7.08325 18.4166H4.58325V20.9166H7.08325V18.4166Z" fill="#626262"/>
<path d="M9.16659 18.4166H7.08325V20.9166H9.16659V18.4166Z" fill="#626262"/>
<path d="M9.16659 20.9166H7.08325V23H9.16659V20.9166Z" fill="#626262"/>
<path d="M9.16659 23H7.08325V25.5H9.16659V23Z" fill="#626262"/>
<path d="M11.2501 18.4166H9.16675V20.9166H11.2501V18.4166Z" fill="#626262"/>
<path d="M7.08325 5.08337H4.58325V7.16671H7.08325V5.08337Z" fill="#626262"/>
<path d="M2.5 5.08337H0V7.16671H2.5V5.08337Z" fill="#626262"/>
<path d="M4.58333 5.08337H2.5V7.16671H4.58333V5.08337Z" fill="#626262"/>
<path d="M13.75 5.08337H11.25V7.16671H13.75V5.08337Z" fill="#626262"/>
<path d="M15.8333 5.08337H13.75V7.16671H15.8333V5.08337Z" fill="#626262"/>
<path d="M11.2501 5.08337H9.16675V7.16671H11.2501V5.08337Z" fill="#626262"/>
<path d="M7.08325 9.66663H4.58325V12.1666H7.08325V9.66663Z" fill="#626262"/>
<path d="M2.5 9.66663H0V12.1666H2.5V9.66663Z" fill="#626262"/>
<path d="M4.58333 9.66663H2.5V12.1666H4.58333V9.66663Z" fill="#626262"/>
<path d="M13.75 9.66663H11.25V12.1666H13.75V9.66663Z" fill="#626262"/>
<path d="M15.8333 9.66663H13.75V12.1666H15.8333V9.66663Z" fill="#626262"/>
<path d="M11.2501 9.66663H9.16675V12.1666H11.2501V9.66663Z" fill="#626262"/>
<path d="M7.08325 3H4.58325V5.08333H7.08325V3Z" fill="#626262"/>
<path d="M9.16659 3H7.08325V5.08333H9.16659V3Z" fill="#626262"/>
<path d="M4.58333 3H2.5V5.08333H4.58333V3Z" fill="#626262"/>
<path d="M13.75 3H11.25V5.08333H13.75V3Z" fill="#626262"/>
<path d="M11.2501 3H9.16675V5.08333H11.2501V3Z" fill="#626262"/>
</svg>
